<svg xmlns="http://www.w3.org/2000/svg" viewBox="0 0 512 512" role="img" aria-label="Fliegenmelder Icon">
  <defs>
    <linearGradient id="green" x1="0" x2="1" y1="0" y2="1">
      <stop offset="0" stop-color="#4CAF28"/>
      <stop offset="1" stop-color="#2f8128"/>
    </linearGradient>
  </defs>
  <rect width="512" height="512" rx="96" fill="#ffffff"/>
  <path d="M74 360 A210 210 0 1 1 438 360" fill="none" stroke="#37a120" stroke-width="24" stroke-linecap="round"/>
  <ellipse cx="195" cy="257" rx="42" ry="102" fill="#ffffff" stroke="#101611" stroke-width="12" transform="rotate(31 195 257)"/>
  <ellipse cx="317" cy="257" rx="42" ry="102" fill="#ffffff" stroke="#101611" stroke-width="12" transform="rotate(-31 317 257)"/>
  <path d="M230 218 L142 180 M282 218 L370 180 M225 275 L130 315 M287 275 L382 315 M238 370 L208 425 M274 370 L304 425"
        fill="none" stroke="#101611" stroke-width="13" stroke-linecap="round"/>
  <ellipse cx="256" cy="286" rx="45" ry="120" fill="#101611"/>
  <ellipse cx="256" cy="178" rx="52" ry="48" fill="#101611"/>
  <ellipse cx="227" cy="160" rx="20" ry="32" fill="url(#green)" stroke="#101611" stroke-width="5"/>
  <ellipse cx="285" cy="160" rx="20" ry="32" fill="url(#green)" stroke="#101611" stroke-width="5"/>
  <path d="M232 130 L196 66 M280 130 L316 66" fill="none" stroke="#101611" stroke-width="11" stroke-linecap="round"/>
</svg>
