<svg xmlns="http://www.w3.org/2000/svg" viewBox="0 0 512 512" role="img" aria-label="Fliegenmelder Icon">
  <defs>
    <linearGradient id="green" x1="0" x2="1" y1="0" y2="1">
      <stop offset="0" stop-color="#76b852"/>
      <stop offset="1" stop-color="#2f8128"/>
    </linearGradient>
  </defs>
  <rect width="512" height="512" rx="96" fill="#ffffff"/>
  <circle cx="256" cy="256" r="218" fill="#ffffff" stroke="#2f8128" stroke-width="24"/>

  <ellipse cx="178" cy="250" rx="46" ry="110" fill="#ffffff" stroke="#101611" stroke-width="16" transform="rotate(-24 178 250)"/>
  <ellipse cx="334" cy="250" rx="46" ry="110" fill="#ffffff" stroke="#101611" stroke-width="16" transform="rotate(24 334 250)"/>

  <ellipse cx="256" cy="286" rx="48" ry="112" fill="#101611"/>
  <ellipse cx="256" cy="180" rx="54" ry="48" fill="#101611"/>

  <ellipse cx="226" cy="166" rx="19" ry="29" fill="url(#green)"/>
  <ellipse cx="286" cy="166" rx="19" ry="29" fill="url(#green)"/>

  <path d="M230 140 L195 78 M282 140 L317 78" fill="none" stroke="#101611" stroke-width="14" stroke-linecap="round"/>

  <path d="M218 240 L122 205 M294 240 L390 205
           M216 300 L120 335 M296 300 L392 335
           M238 390 L215 430 M274 390 L297 430"
        fill="none" stroke="#101611" stroke-width="15" stroke-linecap="round" stroke-linejoin="round"/>

  <path d="M218 256 L250 355 M294 256 L262 355" fill="none" stroke="#5a635a" stroke-width="8" opacity=".55"/>
</svg>
