<svg xmlns="http://www.w3.org/2000/svg" viewBox="0 0 760 360" role="img" aria-label="Fliegenmelder Ahlener Osten">
  <defs>
    <linearGradient id="g" x1="0" x2="1" y1="0" y2="1">
      <stop offset="0" stop-color="#78bd4a"/>
      <stop offset="1" stop-color="#1f7a2d"/>
    </linearGradient>
    <filter id="s" x="-20%" y="-20%" width="140%" height="140%">
      <feDropShadow dx="0" dy="10" stdDeviation="9" flood-color="#0b3f18" flood-opacity=".14"/>
    </filter>
  </defs>
  <rect width="760" height="360" rx="42" fill="#ffffff"/>
  <g filter="url(#s)">
    <circle cx="190" cy="178" r="118" fill="#f2faee" stroke="#2f8128" stroke-width="11"/>
    <ellipse cx="150" cy="158" rx="36" ry="74" fill="#fff" opacity=".84" stroke="#142216" stroke-width="6" transform="rotate(-28 150 158)"/>
    <ellipse cx="230" cy="158" rx="36" ry="74" fill="#fff" opacity=".84" stroke="#142216" stroke-width="6" transform="rotate(28 230 158)"/>
    <path d="M150 125 L183 210 M230 125 L197 210" stroke="#142216" stroke-width="4" opacity=".38"/>
    <ellipse cx="190" cy="183" rx="38" ry="76" fill="#101611"/>
    <ellipse cx="190" cy="112" rx="36" ry="32" fill="#101611"/>
    <ellipse cx="171" cy="102" rx="14" ry="20" fill="url(#g)"/>
    <ellipse cx="209" cy="102" rx="14" ry="20" fill="url(#g)"/>
    <path d="M176 84 C165 58 149 43 128 32 M204 84 C215 58 231 43 252 32" fill="none" stroke="#101611" stroke-width="8" stroke-linecap="round"/>
    <path d="M154 165 L95 132 M226 165 L285 132 M151 202 L93 224 M229 202 L287 224 M174 243 L142 296 M206 243 L238 296" stroke="#101611" stroke-width="9" stroke-linecap="round"/>
  </g>
  <text x="350" y="132" font-family="Arial, Helvetica, sans-serif" font-size="58" font-weight="900" fill="#102016" letter-spacing="-1">Fliegenmelder</text>
  <text x="350" y="193" font-family="Arial, Helvetica, sans-serif" font-size="44" font-weight="800" fill="#2f8128" letter-spacing="2">Ahlener Osten</text>
  <path d="M350 222 H670" stroke="#2f8128" stroke-width="5" stroke-linecap="round"/>
  <text x="350" y="266" font-family="Arial, Helvetica, sans-serif" font-size="25" font-weight="700" fill="#435347">Dokumentieren. Informieren.</text>
  <text x="350" y="302" font-family="Arial, Helvetica, sans-serif" font-size="25" font-weight="700" fill="#435347">Gemeinsam handeln.</text>
</svg>