<svg xmlns="http://www.w3.org/2000/svg" viewBox="0 0 512 512" role="img" aria-label="Fliegenmelder Ahlener Osten">
  <defs>
    <linearGradient id="green" x1="0" y1="0" x2="1" y2="1">
      <stop offset="0" stop-color="#6fb847"/>
      <stop offset="1" stop-color="#1f7a2d"/>
    </linearGradient>
    <filter id="shadow" x="-20%" y="-20%" width="140%" height="140%">
      <feDropShadow dx="0" dy="6" stdDeviation="8" flood-color="#0e4c1b" flood-opacity=".18"/>
    </filter>
  </defs>
  <circle cx="256" cy="256" r="235" fill="#ffffff" stroke="#2f8128" stroke-width="14"/>
  <path d="M104 392h304" stroke="#2f8128" stroke-width="9" stroke-linecap="round"/>
  <path d="M120 430h272" stroke="#2f8128" stroke-width="5" stroke-linecap="round" opacity=".7"/>
  <g filter="url(#shadow)">
    <ellipse cx="192" cy="190" rx="58" ry="108" fill="#ffffff" opacity=".78" stroke="#142216" stroke-width="8" transform="rotate(-29 192 190)"/>
    <ellipse cx="320" cy="190" rx="58" ry="108" fill="#ffffff" opacity=".78" stroke="#142216" stroke-width="8" transform="rotate(29 320 190)"/>
    <path d="M165 150 L235 265 M347 150 L277 265" stroke="#142216" stroke-width="4" opacity=".45"/>
    <ellipse cx="256" cy="236" rx="56" ry="106" fill="#101611"/>
    <ellipse cx="256" cy="154" rx="52" ry="48" fill="#101611"/>
    <ellipse cx="224" cy="140" rx="23" ry="31" fill="url(#green)"/>
    <ellipse cx="288" cy="140" rx="23" ry="31" fill="url(#green)"/>
    <path d="M236 113 C224 79 207 62 184 48" fill="none" stroke="#101611" stroke-width="10" stroke-linecap="round"/>
    <path d="M276 113 C288 79 305 62 328 48" fill="none" stroke="#101611" stroke-width="10" stroke-linecap="round"/>
    <path d="M201 224 L126 177 M311 224 L386 177 M198 272 L121 295 M314 272 L391 295 M220 338 L163 421 M292 338 L349 421" stroke="#101611" stroke-width="13" stroke-linecap="round"/>
    <path d="M201 232 C232 249 280 249 311 232 M210 283 C235 301 277 301 302 283 M230 338 C248 348 264 348 282 338" stroke="#293629" stroke-width="6" opacity=".55" fill="none"/>
  </g>
  <text x="256" y="372" text-anchor="middle" font-family="Arial, Helvetica, sans-serif" font-weight="900" font-size="48" fill="#0e2614" letter-spacing="1">FLIEGENMELDER</text>
  <text x="256" y="420" text-anchor="middle" font-family="Arial, Helvetica, sans-serif" font-weight="800" font-size="34" fill="#2f8128" letter-spacing="4">AHLENER OSTEN</text>
</svg>