<svg xmlns="http://www.w3.org/2000/svg" viewBox="0 0 900 520" role="img" aria-label="Fliegenmelder Ahlener Osten">
  <defs>
    <linearGradient id="green" x1="0" x2="1" y1="0" y2="1">
      <stop offset="0" stop-color="#77b94a"/>
      <stop offset="1" stop-color="#2f8128"/>
    </linearGradient>
    <filter id="shadow" x="-20%" y="-20%" width="140%" height="140%">
      <feDropShadow dx="0" dy="14" stdDeviation="16" flood-color="#0e3f18" flood-opacity=".16"/>
    </filter>
  </defs>
  <rect width="900" height="520" rx="42" fill="#ffffff"/>
  <circle cx="450" cy="260" r="220" fill="#fff" stroke="#2f8128" stroke-width="12"/>
  <path d="M258 314 H642" stroke="#2f8128" stroke-width="6" stroke-linecap="round"/>
  <path d="M282 378 H618" stroke="#2f8128" stroke-width="5" stroke-linecap="round"/>
  <g filter="url(#shadow)">
    <ellipse cx="372" cy="174" rx="48" ry="94" fill="#fff" opacity=".86" stroke="#121c14" stroke-width="6" transform="rotate(-28 372 174)"/>
    <ellipse cx="528" cy="174" rx="48" ry="94" fill="#fff" opacity=".86" stroke="#121c14" stroke-width="6" transform="rotate(28 528 174)"/>
    <path d="M365 132 L432 270 M535 132 L468 270" stroke="#121c14" stroke-width="4" opacity=".38"/>
    <ellipse cx="450" cy="230" rx="50" ry="102" fill="#101611"/>
    <ellipse cx="450" cy="128" rx="52" ry="48" fill="#101611"/>
    <ellipse cx="420" cy="112" rx="22" ry="30" fill="url(#green)"/>
    <ellipse cx="480" cy="112" rx="22" ry="30" fill="url(#green)"/>
    <path d="M428 84 C412 50 392 30 360 16 M472 84 C488 50 508 30 540 16" fill="none" stroke="#101611" stroke-width="10" stroke-linecap="round"/>
    <path d="M405 206 L320 160 M495 206 L580 160 M401 256 L318 286 M499 256 L582 286 M430 318 L382 386 M470 318 L518 386" stroke="#101611" stroke-width="12" stroke-linecap="round"/>
    <path d="M410 245 C430 257 470 257 490 245 M421 294 C438 304 462 304 479 294" fill="none" stroke="#2d3a2d" stroke-width="5" opacity=".55"/>
  </g>
  <text x="450" y="344" text-anchor="middle" font-family="Arial, Helvetica, sans-serif" font-size="70" font-weight="900" fill="#102016" letter-spacing="-1">FLIEGENMELDER</text>
  <text x="450" y="403" text-anchor="middle" font-family="Arial, Helvetica, sans-serif" font-size="46" font-weight="850" fill="#2f8128" letter-spacing="7">AHLENER OSTEN</text>
  <text x="450" y="448" text-anchor="middle" font-family="Arial, Helvetica, sans-serif" font-size="23" font-weight="700" fill="#26382c" letter-spacing="1.5">GEMEINSAM GEGEN DIE FLIEGENPLAGE</text>
</svg>