<svg xmlns="http://www.w3.org/2000/svg" viewBox="0 0 320 320" role="img" aria-label="Fliegenmelder Ahlener Osten Logo">
  <defs>
    <linearGradient id="g" x1="0" y1="0" x2="1" y2="1">
      <stop offset="0" stop-color="#9bd36a"/>
      <stop offset="1" stop-color="#1f7a2d"/>
    </linearGradient>
  </defs>
  <circle cx="160" cy="160" r="148" fill="#edf8e8" stroke="#1f7a2d" stroke-width="10"/>
  <ellipse cx="120" cy="147" rx="42" ry="78" fill="rgba(255,255,255,0.72)" stroke="#12351c" stroke-width="7" transform="rotate(-28 120 147)"/>
  <ellipse cx="200" cy="147" rx="42" ry="78" fill="rgba(255,255,255,0.72)" stroke="#12351c" stroke-width="7" transform="rotate(28 200 147)"/>
  <line x1="98" y1="117" x2="148" y2="205" stroke="#12351c" stroke-width="4" opacity=".75"/>
  <line x1="222" y1="117" x2="172" y2="205" stroke="#12351c" stroke-width="4" opacity=".75"/>
  <ellipse cx="160" cy="150" rx="43" ry="70" fill="#101510"/>
  <ellipse cx="160" cy="105" rx="36" ry="34" fill="#101510"/>
  <ellipse cx="139" cy="96" rx="17" ry="22" fill="url(#g)"/>
  <ellipse cx="181" cy="96" rx="17" ry="22" fill="url(#g)"/>
  <path d="M148 85 C139 63,128 53,113 45" fill="none" stroke="#101510" stroke-width="7" stroke-linecap="round"/>
  <path d="M172 85 C181 63,192 53,207 45" fill="none" stroke="#101510" stroke-width="7" stroke-linecap="round"/>
  <path d="M123 142 L75 111 M197 142 L245 111 M125 175 L78 188 M195 175 L242 188 M136 211 L99 251 M184 211 L221 251" stroke="#101510" stroke-width="9" stroke-linecap="round"/>
  <path d="M125 151 C150 162,170 162,195 151 M130 182 C150 194,170 194,190 182 M143 211 C154 217,166 217,177 211" stroke="#263026" stroke-width="5" opacity=".55" fill="none"/>
</svg>